<?xml version="1.0" encoding="utf-8"?>
<!-- Generator: Adobe Illustrator 18.1.0, SVG Export Plug-In . SVG Version: 6.00 Build 0)  -->
<!DOCTYPE svg PUBLIC "-//W3C//DTD SVG 1.1//EN" "http://www.w3.org/Graphics/SVG/1.1/DTD/svg11.dtd">
<svg version="1.1" id="Layer_1" xmlns="http://www.w3.org/2000/svg" xmlns:xlink="http://www.w3.org/1999/xlink" x="0px" y="0px"
	 viewBox="0 0 500 432" enable-background="new 0 0 500 432" xml:space="preserve">
<polygon fill="#F4F4F4" points="119.9,128.3 134.7,348.6 357.2,357.8 417.7,245.8 413.2,54.9 220.9,54.9 "/>
<g id="Axes">
	<polygon fill="#00CE00" points="280.7,103.3 274.2,97.8 267.7,103.3 274.2,89.2 	"/>
	<polygon fill="#A50000" points="371.8,201.6 377.2,195.1 371.8,188.5 385.9,195.1 	"/>
	<polygon fill="#0A00EC" points="312.7,165.8 307.1,163 297.8,165 310.5,158.6 	"/>
	
		<line fill="none" stroke="#0A00EC" stroke-width="4" stroke-linecap="round" stroke-miterlimit="10" x1="278.7" y1="193.5" x2="306.8" y2="162.7"/>
	
		<line fill="none" stroke="#00CE00" stroke-width="4" stroke-linecap="round" stroke-miterlimit="10" x1="278.8" y1="193.5" x2="274.2" y2="97.7"/>
	
		<line fill="none" stroke="#A50000" stroke-width="4" stroke-linecap="round" stroke-miterlimit="10" x1="278.7" y1="193.5" x2="378.5" y2="195.2"/>
</g>
<g id="Coordinates">
	<text transform="matrix(1 0 0 1 258.6963 205.3932)" font-family="'CourierNewPSMT'" font-size="10">(0,0,0)</text>
	<text transform="matrix(1 0 0 1 396.863 48.5599)" font-family="'CourierNewPSMT'" font-size="10">(1,1,1)</text>
	<text transform="matrix(1 0 0 1 102.86 364.0599)" font-family="'CourierNewPSMT'" font-size="10">(-1,-1,-1)</text>
	<text transform="matrix(1 0 0 1 329.1943 370.0599)" font-family="'CourierNewPSMT'" font-size="10">(1,-1,-1)</text>
	<text transform="matrix(1 0 0 1 417.1953 257.0599)" font-family="'CourierNewPSMT'" font-size="10">(1,-1,1)</text>
	<text transform="matrix(1 0 0 1 229.1943 255.0599)" font-family="'CourierNewPSMT'" font-size="10">(-1,-1,1)</text>
	<text transform="matrix(1 0 0 1 193.5286 48.7266)" font-family="'CourierNewPSMT'" font-size="10">(-1,1,1)</text>
	<text transform="matrix(1 0 0 1 60.5277 130.0599)" font-family="'CourierNewPSMT'" font-size="10">(-1,1,-1)</text>
	<text transform="matrix(1 0 0 1 355.1953 139.0599)" font-family="'CourierNewPSMT'" font-size="10">(1,1,-1)</text>
</g>
<g id="Arrow_3">
</g>
<g id="Interior_Wireframe" opacity="0.2">
	<polygon fill="none" stroke="#6D6D6D" stroke-width="0.75" stroke-miterlimit="10" points="189,287 389,293 383.7,89.7 175,88 	"/>
	<polygon fill="none" stroke="#6D6D6D" stroke-width="0.75" stroke-miterlimit="10" points="244,351.5 233.5,129.5 307.5,55.5 
		313,243 	"/>
	<polygon fill="none" stroke="#6D6D6D" stroke-width="0.75" stroke-miterlimit="10" points="127.5,235.6 352,238.5 415,159.5 
		226.3,157.7 	"/>
	<line fill="none" stroke="#6D6D6D" stroke-width="0.75" stroke-miterlimit="10" x1="238" y1="236.5" x2="310.5" y2="158.5"/>
	<line fill="none" stroke="#6D6D6D" stroke-width="0.75" stroke-miterlimit="10" x1="182" y1="192" x2="386" y2="195"/>
	<line fill="none" stroke="#6D6D6D" stroke-width="0.75" stroke-miterlimit="10" x1="283.3" y1="289.8" x2="274" y2="88.8"/>
</g>
<g id="Exterior_Wireframe">
	<g enable-background="new    ">
		<g enable-background="new    ">
			<defs>
				<polygon id="SVGID_1_" enable-background="new    " points="413.2,54.9 417.7,245.8 230.4,241.3 220.9,54.9 				"/>
			</defs>
			<clipPath id="SVGID_2_">
				<use xlink:href="#SVGID_1_"  overflow="visible"/>
			</clipPath>
			<polygon clip-path="url(#SVGID_2_)" fill="none" stroke="#000000" stroke-width="3" stroke-miterlimit="10" points="413.2,54.9 
				417.7,245.8 230.4,241.3 220.9,54.9 			"/>
		</g>
		<g enable-background="new    ">
			<defs>
				<polygon id="SVGID_3_" enable-background="new    " points="349.7,130.5 357.2,357.8 134.4,349.3 119.9,128.3 				"/>
			</defs>
			<clipPath id="SVGID_4_">
				<use xlink:href="#SVGID_3_"  overflow="visible"/>
			</clipPath>
			<polygon clip-path="url(#SVGID_4_)" fill="none" stroke="#000000" stroke-width="3" stroke-miterlimit="10" points="349.7,130.5 
				357.2,357.8 134.4,349.3 119.9,128.3 			"/>
		</g>
		<g enable-background="new    ">
			<defs>
				<polygon id="SVGID_5_" enable-background="new    " points="349.7,130.5 413.2,54.9 417.7,245.8 357.2,357.8 				"/>
			</defs>
			<clipPath id="SVGID_6_">
				<use xlink:href="#SVGID_5_"  overflow="visible"/>
			</clipPath>
			<polygon clip-path="url(#SVGID_6_)" fill="none" stroke="#000000" stroke-width="3" stroke-miterlimit="10" points="349.7,130.5 
				413.2,54.9 417.7,245.8 357.2,357.8 			"/>
		</g>
		<g enable-background="new    ">
			<defs>
				<polygon id="SVGID_7_" enable-background="new    " points="357.2,357.8 134.4,349.3 230.4,241.3 417.7,245.8 				"/>
			</defs>
			<clipPath id="SVGID_8_">
				<use xlink:href="#SVGID_7_"  overflow="visible"/>
			</clipPath>
			<polygon clip-path="url(#SVGID_8_)" fill="none" stroke="#000000" stroke-width="3" stroke-miterlimit="10" points="357.2,357.8 
				134.4,349.3 230.4,241.3 417.7,245.8 			"/>
		</g>
		<g enable-background="new    ">
			<defs>
				<polygon id="SVGID_9_" enable-background="new    " points="134.4,349.3 119.9,128.3 220.9,54.9 230.4,241.3 				"/>
			</defs>
			<clipPath id="SVGID_10_">
				<use xlink:href="#SVGID_9_"  overflow="visible"/>
			</clipPath>
			<polygon clip-path="url(#SVGID_10_)" fill="none" stroke="#000000" stroke-width="3" stroke-miterlimit="10" points="
				134.4,349.3 119.9,128.3 220.9,54.9 230.4,241.3 			"/>
		</g>
		<g enable-background="new    ">
			<defs>
				<polygon id="SVGID_11_" enable-background="new    " points="119.9,128.3 220.9,54.9 413.2,54.9 349.7,130.5 				"/>
			</defs>
			<clipPath id="SVGID_12_">
				<use xlink:href="#SVGID_11_"  overflow="visible"/>
			</clipPath>
			<polygon clip-path="url(#SVGID_12_)" fill="none" stroke="#000000" stroke-width="3" stroke-miterlimit="10" points="
				119.9,128.3 220.9,54.9 413.2,54.9 349.7,130.5 			"/>
		</g>
	</g>
</g>
<text transform="matrix(1 0 0 1 14.0003 418.3339)" font-family="'CourierNewPSMT'" font-size="19.6325">Clipspace</text>
</svg>
